<svg xmlns="http://www.w3.org/2000/svg" width="50" height="50" viewBox="0 0 50 50">
    <g fill="none" fill-rule="nonzero">
        <path fill="#9BC9FF" d="M34.022 19.036h2.169c1.198 0 2.168.97 2.168 2.169v13.012c0 1.198-.97 2.169-2.168 2.169H19.925a2.168 2.168 0 0 1-2.169-2.169v-2.169h15.182l1.084-13.012z"/>
        <path fill="#57A4FF" d="M36.19 37.47H19.926a3.257 3.257 0 0 1-3.253-3.253v-2.169a1.084 1.084 0 1 1 2.169 0v2.17c0 .598.486 1.084 1.084 1.084H36.19c.598 0 1.084-.486 1.084-1.085V21.205c0-.598-.486-1.085-1.084-1.085h-2.17a1.084 1.084 0 1 1 0-2.168h2.17a3.257 3.257 0 0 1 3.253 3.253v13.012a3.257 3.257 0 0 1-3.253 3.253z"/>
        <path d="M14.503 13.614h17.35c1.198 0 2.169.97 2.169 2.169V29.88c0 1.198-.97 2.169-2.169 2.169h-17.35a2.168 2.168 0 0 1-2.169-2.17V15.784c0-1.198.97-2.169 2.17-2.169z"/>
        <path fill="#57A4FF" d="M31.853 33.133h-17.35a3.257 3.257 0 0 1-3.253-3.253V15.783a3.257 3.257 0 0 1 3.253-3.253h17.35a3.257 3.257 0 0 1 3.253 3.253V29.88a3.257 3.257 0 0 1-3.253 3.253zm-17.35-18.435c-.597 0-1.084.487-1.084 1.085V29.88c0 .598.487 1.084 1.084 1.084h17.35c.599 0 1.085-.486 1.085-1.084V15.783c0-.598-.486-1.085-1.085-1.085h-17.35z"/>
        <path fill="#9BC9FF" d="M28.6 21.205H17.756a1.085 1.085 0 0 1 0-2.169H28.6a1.084 1.084 0 1 1 0 2.169zM26.431 26.627h-6.506a1.084 1.084 0 1 1 0-2.17h6.506a1.084 1.084 0 1 1 0 2.17z"/>
    </g>
</svg>
