<?xml version="1.0" encoding="UTF-8"?>
<svg width="40px" height="40px" viewBox="0 0 40 40" version="1.1" xmlns="http://www.w3.org/2000/svg" xmlns:xlink="http://www.w3.org/1999/xlink">
    <!-- Generator: Sketch 63.1 (92452) - https://sketch.com -->
    <title>customer_warranty@1.5x</title>
    <desc>Created with Sketch.</desc>
    <defs>
        <radialGradient cx="50%" cy="0%" fx="50%" fy="0%" r="114.285714%" gradientTransform="translate(0.500000,0.000000),scale(1.000000,0.875000),rotate(90.000000),translate(-0.500000,-0.000000)" id="radialGradient-1">
            <stop stop-color="#0D74B7" offset="0%"></stop>
            <stop stop-color="#3E87A4" offset="100%"></stop>
        </radialGradient>
    </defs>
    <g id="customer_warranty" stroke="none" stroke-width="1" fill="none" fill-rule="evenodd">
        <path d="M18.5704305,4.54548358 C19.3857773,3.81817214 20.6152196,3.81817214 21.4303096,4.54548358 L21.4303096,4.54548358 L21.4516308,4.56523355 C23.9504608,6.93560507 26.8750102,8.13529082 30.655494,8.34060302 C32.468703,8.43922787 33.9099454,9.89872573 33.9367897,11.6630981 C33.9425696,12.0249101 33.9520743,12.3501596 33.9663955,12.6575342 L33.9663955,12.6575342 L33.9673588,12.6824092 C34.0406347,16.4412162 34.1316997,21.1191468 32.5206576,25.3698906 C31.6373652,27.7009497 30.3008027,29.7273217 28.548218,31.3930692 C26.5531357,33.2893165 23.9403781,34.7956268 20.7828358,35.8703752 C20.6794404,35.9055001 20.5718064,35.9340626 20.4629522,35.9553126 C20.3096572,35.985125 20.1548852,36 20.00037,36 C19.8458548,36 19.6912755,35.985125 19.5377878,35.9553126 C19.4288694,35.9340626 19.3220061,35.9057501 19.2191886,35.8708752 C16.057793,34.7981268 13.4423382,33.292504 11.4454577,31.3960067 C9.6921666,29.7306967 8.35560405,27.7048247 7.4730823,25.3742656 C5.86801272,21.1362718 5.95933465,16.4670911 6.03286743,12.7153466 L6.03286743,12.7153466 L6.0343445,12.6575342 C6.04866573,12.3479096 6.05842729,12.0227226 6.06395028,11.6633481 C6.09079456,9.89872573 7.53222962,8.43922787 9.34524603,8.34085302 C13.1257298,8.13529082 16.0502792,6.93560507 18.5491092,4.56523355 L18.5491092,4.56523355 Z M20.1197564,5.92410656 C20.047508,5.86429414 19.9534246,5.86454414 19.8809836,5.92410656 C18.4550257,7.27372958 16.9232963,8.27516561 15.1985834,8.98566457 C13.4716871,9.69703853 11.5922022,10.0994129 9.45288003,10.2156003 C8.64633145,10.2592877 8.00515133,10.9075368 7.99307783,11.6909731 C7.98755484,12.0649726 7.9775364,12.4052846 7.96250875,12.7302841 L7.96250875,12.7302841 L7.96199498,12.7512841 C7.88794844,16.5325285 7.80420456,20.8186472 9.28352988,24.7251415 C10.9751048,29.192135 14.4329435,32.258068 19.8545889,34.0978778 C19.8736624,34.1042528 19.8942773,34.1096278 19.9153417,34.1137528 C19.9719844,34.1247527 20.0289482,34.1247527 20.0848845,34.1140028 C20.1062058,34.1098778 20.1268207,34.1042528 20.1460869,34.0978778 C25.5619525,32.2546305 29.0176076,29.18701 30.7104027,24.720204 C32.1940308,20.8054598 32.1122778,16.5159035 32.0384881,12.7302841 C32.0234605,12.4075346 32.0133778,12.0671601 32.0076622,11.6912231 C31.9958456,10.9075368 31.3546654,10.2592877 30.5481169,10.2156003 C28.4085379,10.0994129 26.529053,9.69703853 24.8020924,8.98566457 C23.0777006,8.27516561 21.5459069,7.27372958 20.1197564,5.92410656 Z M20.2962963,12 C24.8707741,12 28.5925926,15.5888542 28.5925926,19.999906 C28.5925926,24.4111458 24.8707741,28 20.2962963,28 C15.7216234,28 12,24.4111458 12,19.999906 C12,15.5888542 15.7216234,12 20.2962963,12 Z M20.2962963,13.883581 C16.7987284,13.883581 13.9533663,16.6272909 13.9533663,19.999906 C13.9533663,23.3725211 16.7987284,26.1161682 20.2962963,26.1161682 C23.7936041,26.1161682 26.6389662,23.3725211 26.6389662,19.999906 C26.6389662,16.6272909 23.7936041,13.883581 20.2962963,13.883581 Z M22.6163648,17.2644119 C23.0007217,16.9118627 23.6238684,16.9118627 24.0082252,17.2644119 C24.39232,17.6164207 24.39232,18.1875119 24.0082252,18.5397608 L24.0082252,18.5397608 L19.4295509,22.7358883 C19.2374053,22.9120428 18.9855785,23 18.7337518,23 C18.4819905,23 18.2301638,22.9120428 18.0379526,22.7358883 L18.0379526,22.7358883 L16.2880711,21.1321859 C15.9039763,20.7801771 15.9039763,20.2090859 16.2880711,19.8568369 C16.6724934,19.504588 17.2955746,19.504588 17.6799315,19.8568369 L17.6799315,19.8568369 L18.7337518,20.8226247 Z" id="Combined-Shape" fill="url(#radialGradient-1)"></path>
    </g>
</svg>