<svg xmlns="http://www.w3.org/2000/svg" width="15" height="15" viewBox="0 0 15 15">
    <path fill="#4389A2" fill-rule="evenodd" d="M13.5 12.757c0 .413-.37.743-.784.743h-2.25c-.413 0-.716-.33-.716-.743v-2.25c0-.413.303-.757.716-.757h2.25c.414 0 .784.344.784.757v2.25zm-.784-4.507h-2.25c-1.242 0-2.216 1.014-2.216 2.257v2.25c0 1.242.973 2.243 2.216 2.243h2.25C13.96 15 15 14 15 12.757v-2.25c0-1.243-1.041-2.257-2.284-2.257zM5.25 12.757c0 .413-.37.743-.784.743h-2.25c-.413 0-.716-.33-.716-.743v-2.25c0-.413.303-.757.716-.757h2.25c.414 0 .784.344.784.757v2.25zM4.466 8.25h-2.25C.973 8.25 0 9.264 0 10.507v2.25C0 13.999.974 15 2.216 15h2.25c1.243 0 2.284-1 2.284-2.243v-2.25c0-1.243-1.041-2.257-2.284-2.257zM13.5 4.507c0 .413-.37.743-.784.743h-2.25c-.413 0-.716-.33-.716-.743v-2.25c0-.413.303-.757.716-.757h2.25c.414 0 .784.344.784.757v2.25zM12.716 0h-2.25C9.224 0 8.25 1.014 8.25 2.257v2.25c0 1.243.973 2.243 2.216 2.243h2.25c1.243 0 2.284-1 2.284-2.243v-2.25C15 1.014 13.959 0 12.716 0zM5.25 4.507c0 .413-.37.743-.784.743h-2.25c-.413 0-.716-.33-.716-.743v-2.25c0-.413.303-.757.716-.757h2.25c.414 0 .784.344.784.757v2.25zM4.466 0h-2.25C.973 0 0 1.014 0 2.257v2.25C0 5.75.974 6.75 2.216 6.75h2.25c1.243 0 2.284-1 2.284-2.243v-2.25C6.75 1.014 5.709 0 4.466 0z"/>
</svg>
