<svg xmlns="http://www.w3.org/2000/svg" width="50" height="50" viewBox="0 0 50 50">
    <g fill="none" fill-rule="nonzero">
        <path fill="#9BC9FF" d="M24.304 31.905c-.284 0-.558-.1-.776-.281l-2.379-1.982a1.212 1.212 0 1 1 1.55-1.856l1.513 1.26 3.391-3.547a1.212 1.212 0 0 1 1.75 1.677l-4.187 4.36a1.206 1.206 0 0 1-.862.369z"/>
        <path fill="#57A4FF" d="M33.578 14.703h-1.696v-.969a1.211 1.211 0 1 0-2.423 0v.97h-8.722v-.97a1.211 1.211 0 1 0-2.422 0v.97h-1.696a4.124 4.124 0 0 0-4.119 4.118v14.537a4.124 4.124 0 0 0 4.119 4.118h16.96a4.124 4.124 0 0 0 4.118-4.118V18.822a4.124 4.124 0 0 0-4.119-4.119zm-16.96 2.423h16.96c.937 0 1.696.76 1.696 1.696v1.211H14.923v-1.211c0-.937.76-1.696 1.696-1.696zm16.96 17.929h-16.96c-.936 0-1.695-.76-1.695-1.696V22.456h20.351V33.36c0 .936-.76 1.696-1.696 1.696z"/>
    </g>
</svg>
