<?xml version="1.0" encoding="UTF-8"?>
<svg width="20px" height="18px" viewBox="0 0 20 18" version="1.1" xmlns="http://www.w3.org/2000/svg" xmlns:xlink="http://www.w3.org/1999/xlink">
    <!-- Generator: Sketch 63.1 (92452) - https://sketch.com -->
    <title>download</title>
    <desc>Created with Sketch.</desc>
    <g id="POS-Purchase" stroke="none" stroke-width="1" fill="none" fill-rule="evenodd">
        <g id="POS---Download-List" transform="translate(-52.000000, -226.000000)" fill-rule="nonzero">
            <g id="Item-1" transform="translate(10.000000, 209.000000)">
                <g id="Content" transform="translate(42.000000, 17.000000)">
                    <g id="download">
                        <g transform="translate(0.400000, 0.000000)" id="Path">
                            <path d="M11.6366507,13.5461942 L11.0412962,14.1415487 C10.8460341,14.3368108 10.5294516,14.3368108 10.3341895,14.1415487 C10.2404213,14.0477805 10.1877429,13.9206035 10.1877429,13.7879953 L10.1877429,8.36368571 C10.1877429,8.08754334 9.96388523,7.86368571 9.68774286,7.86368571 L9.12042041,7.86368571 C8.84427803,7.86368571 8.62042041,8.08754334 8.62042041,8.36368571 L8.62042041,13.7879953 C8.62042041,14.0641376 8.39656278,14.2879953 8.12042041,14.2879953 C7.98781216,14.2879953 7.86063521,14.2353168 7.76686702,14.1415487 L7.17151257,13.5461942 C6.97625043,13.3509321 6.65966794,13.3509321 6.46440579,13.5461942 L6.07435747,13.9362425 C5.87909533,14.1315047 5.87909533,14.4480872 6.07435747,14.6433493 L8.69697485,17.2659667 C9.08749914,17.656491 9.72066412,17.656491 10.1111884,17.2659667 L12.7338058,14.6433493 C12.9290679,14.4480872 12.9290679,14.1315047 12.7338058,13.9362425 L12.3437575,13.5461942 C12.1484953,13.3509321 11.8319128,13.3509321 11.6366507,13.5461942 Z" fill="#68BCDA"></path>
                            <path d="M14.4979714,3.86695102 L14.4196163,3.86695102 C13.6359184,1.59428571 11.4416449,0.0269265306 8.93387755,0.0269265306 C5.72080408,0.0269265306 3.05632653,2.69140408 3.05632653,5.90447755 C3.05632653,6.06122449 3.05632653,6.13957959 3.05632653,6.29632653 C1.33225714,6.29632653 0,7.70693878 0,9.43100816 C0,11.1550776 1.41061224,12.5657265 3.13468163,12.5657265 L6.26938163,12.5657265 C6.70219592,12.5657265 7.05306122,12.2148612 7.05306122,11.7820469 C7.05306122,11.3492327 6.70219592,10.9983673 6.26938163,10.9983673 L3.13468163,10.9983673 L3.13468163,10.9983673 C2.19427347,10.9983673 1.48896735,10.3714163 1.48896735,9.43100816 C1.48896735,8.4906 2.27262857,7.78529388 3.13468163,7.78529388 C3.36978367,7.78529388 3.52653061,7.86364898 3.68324082,7.94204082 L5.17220816,8.56899184 L4.78039592,7.00163265 C4.70204082,6.68817551 4.62364898,6.29632653 4.62364898,5.90447755 C4.62364898,3.55345714 6.58282041,1.59428571 8.93384082,1.59428571 C10.8930122,1.59428571 12.6171184,2.92654286 13.1656776,5.04246122 L13.3224245,5.74776735 L14.0277306,5.59102041 C14.1844776,5.51266531 14.3411878,5.51266531 14.4979347,5.51266531 C16.0652939,5.51266531 17.3191592,6.76653061 17.3191592,8.25553469 C17.3191592,9.74453878 15.9869388,10.9983673 14.4979714,10.9983673 L12.5387816,10.9983673 C12.1059673,10.9983673 11.755102,11.3492327 11.755102,11.7820469 C11.755102,12.2148612 12.1059673,12.5657265 12.5387816,12.5657265 L14.4979714,12.5657265 L14.4979714,12.5657265 C16.8489918,12.5657265 18.8081633,10.5281633 18.8081633,8.17714286 C18.8081633,5.82612245 16.8489918,3.86695102 14.4979714,3.86695102 Z" fill="#4389A2"></path>
                        </g>
                    </g>
                </g>
            </g>
        </g>
    </g>
</svg>