<svg xmlns="http://www.w3.org/2000/svg" xmlns:xlink="http://www.w3.org/1999/xlink" width="32" height="30" viewBox="0 0 32 30">
    <defs>
        <linearGradient id="prefix__b" x1="0%" x2="100%" y1="0%" y2="100%">
            <stop offset="0%" stop-color="#0371BB"/>
            <stop offset="100%" stop-color="#4389A2"/>
        </linearGradient>
        <linearGradient id="prefix__d" x1="0%" x2="100%" y1="17.141%" y2="82.859%">
            <stop offset="0%" stop-color="#0371BB"/>
            <stop offset="100%" stop-color="#4389A2"/>
        </linearGradient>
        <path id="prefix__a" d="M0.004 0.025L31.347 0.025 31.347 30 0.004 30z"/>
    </defs>
    <g fill="none" fill-rule="evenodd">
        <mask id="prefix__c" fill="#fff">
            <use xlink:href="#prefix__a"/>
        </mask>
        <path fill="url(#prefix__b)" d="M14.988 30h-.01c-4.002-.002-7.765-1.563-10.594-4.396-2.83-2.832-4.386-6.597-4.384-10.6.002-4.003 1.563-7.766 4.396-10.595C7.226 1.582 10.987.025 14.987.025h.009c2.112.001 4.162.438 6.091 1.298.64.284.926 1.033.642 1.672-.285.638-1.033.926-1.672.64-1.604-.714-3.307-1.076-5.062-1.077h-.008c-3.324 0-6.45 1.293-8.801 3.643-2.354 2.35-3.652 5.478-3.653 8.804-.004 6.868 5.58 12.459 12.447 12.462h.008c3.324 0 6.45-1.293 8.801-3.642 2.354-2.351 3.651-5.478 3.653-8.805v-1.276c0-.699.567-1.266 1.267-1.266.699 0 1.266.567 1.266 1.266v1.276c-.002 4.004-1.564 7.767-4.396 10.596C22.749 28.443 18.987 30 14.988 30" mask="url(#prefix__c)"/>
        <path fill="url(#prefix__d)" d="M14.987 19.03c-.324 0-.648-.123-.895-.37l-4.116-4.116c-.495-.495-.495-1.297 0-1.791.494-.495 1.296-.495 1.79 0l3.221 3.22L29.185 1.777c.495-.494 1.297-.494 1.791 0 .495.495.495 1.296 0 1.79L15.883 18.66c-.247.247-.571.37-.896.37" mask="url(#prefix__c)"/>
    </g>
</svg>
