<?xml version="1.0" encoding="UTF-8"?>
<svg width="44px" height="44px" viewBox="0 0 44 44" version="1.1" xmlns="http://www.w3.org/2000/svg" xmlns:xlink="http://www.w3.org/1999/xlink">
    <!-- Generator: Sketch 63.1 (92452) - https://sketch.com -->
    <title>filter</title>
    <desc>Created with Sketch.</desc>
    <defs>
        <linearGradient x1="0%" y1="13.875%" x2="100%" y2="86.125%" id="linearGradient-1">
            <stop stop-color="#0371BB" offset="0%"></stop>
            <stop stop-color="#4389A2" offset="100%"></stop>
        </linearGradient>
    </defs>
    <g id="filter" stroke="none" stroke-width="1" fill="none" fill-rule="evenodd">
        <path d="M25,23 C26.8635652,23 28.429479,24.2743978 28.8737865,25.9992387 L28.8737865,25.9992387 L31.0081969,26 C31.5446944,26 32,26.4477153 32,27 C32,27.5561352 31.5559546,28 31.0081969,28 L31.0081969,28 L28.8737865,28.0007613 C28.429479,29.7256022 26.8635652,31 25,31 C23.1364348,31 21.570521,29.7256022 21.1262135,28.0007613 L21.1262135,28.0007613 L12.9918031,28 C12.4553056,28 12,27.5522847 12,27 L12,27 L12.0066726,26.8826674 C12.0639642,26.3827202 12.4831709,26 12.9918031,26 L12.9918031,26 L21.1262135,25.9992387 C21.570521,24.2743978 23.1364348,23 25,23 Z M25,25 C23.8954305,25 23,25.8954305 23,27 C23,28.1045695 23.8954305,29 25,29 C26.1045695,29 27,28.1045695 27,27 C27,25.8954305 26.1045695,25 25,25 Z M19,14 C20.8635652,14 22.429479,15.2743978 22.8737865,16.9992387 L31,17 C31.5522847,17 32,17.4477153 32,18 C32,18.5522847 31.5522847,19 31,19 L22.8737865,19.0007613 C22.429479,20.7256022 20.8635652,22 19,22 C17.1364348,22 15.570521,20.7256022 15.1262135,19.0007613 L13,19 C12.4477153,19 12,18.5522847 12,18 C12,17.4477153 12.4477153,17 13,17 L15.1262135,16.9992387 C15.570521,15.2743978 17.1364348,14 19,14 Z M19,16 C17.8954305,16 17,16.8954305 17,18 C17,19.1045695 17.8954305,20 19,20 C20.1045695,20 21,19.1045695 21,18 C21,16.8954305 20.1045695,16 19,16 Z" id="Combined-Shape" fill="url(#linearGradient-1)" transform="translate(22.000000, 22.500000) scale(-1, 1) translate(-22.000000, -22.500000) "></path>
    </g>
</svg>