<?xml version="1.0" encoding="UTF-8"?>
<svg width="30px" height="30px" viewBox="0 0 30 30" version="1.1" xmlns="http://www.w3.org/2000/svg" xmlns:xlink="http://www.w3.org/1999/xlink">
    <!-- Generator: sketchtool 61.2 (101010) - https://sketch.com -->
    <title>A6B19555-A9B3-41CF-9489-8C55DDEBB5AB</title>
    <desc>Created with sketchtool.</desc>
    <g id="POS-Purchase" stroke="none" stroke-width="1" fill="none" fill-rule="evenodd">
        <g id="POS---Downloaded-Error" transform="translate(-173.000000, -299.000000)" fill="#DA596F">
            <g id="detail" transform="translate(25.000000, 250.000000)">
                <g id="Group" transform="translate(80.000000, 49.000000)">
                    <path d="M95,14.7385298 C95,8.3330129 89.6165,2.99533174 83,2.99533174 C76.3835,2.99533174 71,8.3330129 71,14.7385298 L71,24.8387885 C71,25.6655 71.672,26.3753936 72.5,26.3753936 C73.328,26.3753936 74,25.7433786 74,24.9166671 C74,24.0884579 74.672,23.4968798 75.5,23.4968798 C76.328,23.4968798 77,24.3220937 77,25.1488053 C77,25.9770145 77.672,26.9579857 78.5,26.9579857 L80,26.9579857 C80.828,26.9579857 81.5,26.0548931 81.5,25.2266839 C81.5,24.3999724 82.172,23.4968798 83,23.4968798 C83.828,23.4968798 84.5,24.3220937 84.5,25.1488053 C84.5,25.9770145 85.172,26.9579857 86,26.9579857 L87.5,26.9579857 C88.328,26.9579857 89,25.9770145 89,25.1488053 C89,24.3220937 89.672,23.3411226 90.5,23.3411226 C91.328,23.3411226 92,24.0120769 92,24.8387885 C92,25.6655 92.672,26.3364543 93.5,26.3364543 C94.328,26.3364543 95,25.6655 95,24.8387885 L95,14.7385298 Z M98,14.7385298 L98,26.3364543 C98,27.9898774 96.6575,29.9533174 95,29.9533174 L93.8585,29.9533174 C93.0305,29.9533174 92.1695,29.45759 91.6415,28.821082 C91.37,28.4930932 90.9605,28.0512817 90.5,28.0512817 C90.0395,28.0512817 89.63,28.4152146 89.3585,28.7432034 C88.8305,29.3797114 87.9695,29.9533174 87.1415,29.9533174 L86.3585,29.9533174 C85.5305,29.9533174 84.6695,29.45759 84.1415,28.821082 C83.87,28.4930932 83.4605,28.0512817 83,28.0512817 C82.5395,28.0512817 82.13,28.4152146 81.8585,28.7432034 C80.399,30.4999654 77.894,30.3172502 76.6565,28.8016123 C76.382,28.4676329 75.9665,28.0198308 75.5,28.0198308 C75.0335,28.0198308 74.618,28.3897542 74.3435,28.7237337 C73.814,29.3737207 72.9425,29.9533174 72.104,29.9533174 L71,29.9533174 C69.3425,29.9533174 68,27.9898774 68,26.3364543 L68,14.7385298 C68,6.66910612 74.7155,0 83,0 C91.2845,0 98,6.66910612 98,14.7385298 L98,14.7385298 Z M89,12.8574615 L89,15.8527932 C89,16.6795048 89.672,17.3504591 90.5,17.3504591 C91.328,17.3504591 92,16.6795048 92,15.8527932 L92,12.8574615 C92,12.0307499 91.328,11.3597956 90.5,11.3597956 C89.672,11.3597956 89,12.0307499 89,12.8574615 L89,12.8574615 Z M77,12.8574615 L77,15.8527932 C77,16.6795048 76.328,17.3504591 75.5,17.3504591 C74.672,17.3504591 74,16.6795048 74,15.8527932 L74,12.8574615 C74,12.0307499 74.672,11.3597956 75.5,11.3597956 C76.328,11.3597956 77,12.0307499 77,12.8574615 L77,12.8574615 Z" id="global_oops"></path>
                </g>
            </g>
        </g>
    </g>
</svg>