<?xml version="1.0" encoding="UTF-8"?>
<svg width="25px" height="25px" viewBox="0 0 25 25" version="1.1" xmlns="http://www.w3.org/2000/svg" xmlns:xlink="http://www.w3.org/1999/xlink">
    <!-- Generator: Sketch 63.1 (92452) - https://sketch.com -->
    <title>global_delete</title>
    <desc>Created with Sketch.</desc>
    <g id="global_delete" stroke="none" stroke-width="1" fill="none" fill-rule="evenodd">
        <path d="M9.95,17.6 L11.65,17.6 L11.65,10.8 L9.95,10.8 L9.95,17.6 Z M13.35,17.6 L15.05,17.6 L15.05,10.8 L13.35,10.8 L13.35,17.6 Z M8.25,19.3 L16.75,19.3 L16.75,9.1 L8.25,9.1 L8.25,19.3 Z M9.95,7.4 L15.05,7.4 L15.05,5.7 L9.95,5.7 L9.95,7.4 Z M16.75,7.4 L16.75,4 L8.25,4 L8.25,7.4 L4,7.4 L4,9.1 L6.55,9.1 L6.55,21 L18.45,21 L18.45,9.1 L21,9.1 L21,7.4 L16.75,7.4 Z" id="delete-[#1487]" fill="#DA596F"></path>
    </g>
</svg>