<?xml version="1.0" encoding="UTF-8"?>
<svg width="20px" height="20px" viewBox="0 0 20 20" version="1.1" xmlns="http://www.w3.org/2000/svg" xmlns:xlink="http://www.w3.org/1999/xlink">
    <!-- Generator: Sketch 63.1 (92452) - https://sketch.com -->
    <title>global_cancel</title>
    <desc>Created with Sketch.</desc>
    <g id="global_cancel" stroke="none" stroke-width="1" fill="none" fill-rule="evenodd">
        <g id="iconfinder_cancel-2_309095" transform="translate(3.000000, 3.000000)">
            <path d="M7,1.4 C10.08,1.4 12.6,3.92 12.6,7 C12.6,10.08 10.08,12.6 7,12.6 C3.92,12.6 1.4,10.08 1.4,7 C1.4,3.92 3.92,1.4 7,1.4 M7,0 C3.15,0 0,3.15 0,7 C0,10.85 3.15,14 7,14 C10.85,14 14,10.85 14,7 C14,3.15 10.85,0 7,0 L7,0 Z" id="Shape" fill="#DA596F" fill-rule="nonzero"></path>
            <line x1="11.34" y1="11.34" x2="2.66" y2="2.66" id="Path" stroke="#DA596F" stroke-width="2"></line>
        </g>
    </g>
</svg>