<?xml version="1.0" encoding="UTF-8"?>
<svg width="25px" height="25px" viewBox="0 0 25 25" version="1.1" xmlns="http://www.w3.org/2000/svg" xmlns:xlink="http://www.w3.org/1999/xlink">
    <!-- Generator: Sketch 63.1 (92452) - https://sketch.com -->
    <title>global_download</title>
    <desc>Created with Sketch.</desc>
    <g id="global_download" stroke="none" stroke-width="1" fill="none" fill-rule="evenodd">
        <g id="download" transform="translate(4.000000, 4.000000)" fill-rule="nonzero">
            <path d="M11.0055873,12.8518447 L10.5050993,13.3523328 C10.3098371,13.5475949 9.99325462,13.5475949 9.79799247,13.3523328 C9.70422428,13.2585646 9.65154586,13.1313876 9.65154586,12.9987794 L9.65154586,7.94980752 C9.65154586,7.67366514 9.42768824,7.44980752 9.15154586,7.44980752 L8.66671407,7.44980752 C8.3905717,7.44980752 8.16671407,7.67366514 8.16671407,7.94980752 L8.16671407,12.9987794 C8.16671407,13.2749217 7.94285645,13.4987794 7.66671407,13.4987794 C7.53410583,13.4987794 7.40692887,13.4461009 7.31316068,13.3523328 L6.81267262,12.8518447 C6.61741047,12.6565825 6.30082798,12.6565825 6.10556584,12.8518447 L5.77326252,13.184148 C5.57800037,13.3794102 5.57800037,13.6959926 5.77326252,13.8912548 L8.20202319,16.3200155 C8.59254748,16.7105397 9.22571246,16.7105397 9.61623675,16.3200155 L12.0449974,13.8912548 C12.2402596,13.6959926 12.2402596,13.3794102 12.0449974,13.184148 L11.7126941,12.8518447 C11.517432,12.6565825 11.2008495,12.6565825 11.0055873,12.8518447 Z" id="Path" fill="#68BCDA"></path>
            <path d="M13.7349203,3.66342728 L13.6606892,3.66342728 C12.9182385,1.51037594 10.8394531,0.0255093448 8.46367347,0.0255093448 C5.41970913,0.0255093448 2.89546724,2.54975124 2.89546724,5.59371557 C2.89546724,5.74221267 2.89546724,5.81644382 2.89546724,5.96494092 C1.26213835,5.96494092 0,7.30131042 0,8.93463931 C0,10.5679682 1.3363695,11.9043725 2.96969839,11.9043725 L5.93941418,11.9043725 C6.34944877,11.9043725 6.68184748,11.5719738 6.68184748,11.1619392 C6.68184748,10.7519046 6.34944877,10.4195059 5.93941418,10.4195059 L2.96969839,10.4195059 L2.96969839,10.4195059 C2.07878539,10.4195059 1.41060064,9.82555231 1.41060064,8.93463931 C1.41060064,8.04372632 2.15301654,7.37554157 2.96969839,7.37554157 C3.19242664,7.37554157 3.34092374,7.44977272 3.48938604,7.52403867 L4.89998668,8.11799227 L4.52879613,6.63312567 C4.45456498,6.33616627 4.38029903,5.96494092 4.38029903,5.59371557 C4.38029903,3.36643308 6.23635618,1.51037594 8.46363867,1.51037594 C10.3196958,1.51037594 11.9530595,2.77251429 12.4727472,4.77706853 L12.6212443,5.44525328 L13.289429,5.29675618 C13.4379261,5.22252503 13.5863884,5.22252503 13.7348855,5.22252503 C15.2197521,5.22252503 16.4076245,6.41039742 16.4076245,7.82103287 C16.4076245,9.23166831 15.1455209,10.4195059 13.7349203,10.4195059 L11.8788458,10.4195059 C11.4688112,10.4195059 11.1364125,10.7519046 11.1364125,11.1619392 C11.1364125,11.5719738 11.4688112,11.9043725 11.8788458,11.9043725 L13.7349203,11.9043725 L13.7349203,11.9043725 C15.9622028,11.9043725 17.8182599,9.97404941 17.8182599,7.74676692 C17.8182599,5.51948443 15.9622028,3.66342728 13.7349203,3.66342728 Z" id="Path" fill="#4389A2"></path>
        </g>
    </g>
</svg>