<?xml version="1.0" encoding="UTF-8"?>
<svg width="20px" height="20px" viewBox="0 0 20 20" version="1.1" xmlns="http://www.w3.org/2000/svg" xmlns:xlink="http://www.w3.org/1999/xlink">
    <!-- Generator: Sketch 63.1 (92452) - https://sketch.com -->
    <title>global_View</title>
    <desc>Created with Sketch.</desc>
    <g id="global_View" stroke="none" stroke-width="1" fill="none" fill-rule="evenodd">
        <g id="noun_show-password_777509" transform="translate(2.000000, 5.500000)" fill="#626262" fill-rule="nonzero">
            <path d="M8,0.134357143 C4.85705263,0.134357143 2.04821053,1.833 0.183368421,4.5 C2.04821053,7.16721429 4.85705263,8.86564286 8,8.86564286 C11.1427368,8.86564286 13.9517895,7.16721429 15.8166316,4.5 C13.9517895,1.833 11.1427368,0.134357143 8,0.134357143 Z M8,7.75821429 C6.23242105,7.75821429 4.79894737,6.29957143 4.79894737,4.5 C4.79894737,2.70042857 6.23242105,1.24178571 8,1.24178571 C9.768,1.24178571 11.2010526,2.70042857 11.2010526,4.5 C11.2010526,6.29957143 9.768,7.75821429 8,7.75821429 Z M8,2.87957143 C7.12063158,2.87957143 6.40778947,3.60514286 6.40778947,4.50021429 C6.40778947,5.39528571 7.12063158,6.12085714 8,6.12085714 C8.87936842,6.12085714 9.59221053,5.39528571 9.59221053,4.50021429 C9.59221053,3.60514286 8.87936842,2.87957143 8,2.87957143 Z" id="Shape"></path>
        </g>
    </g>
</svg>