<svg xmlns="http://www.w3.org/2000/svg" width="123" height="123" viewBox="0 0 123 123">
    <g fill="none" fill-rule="nonzero" opacity=".501">
        <path fill="#9BC9FF" d="M37.707 107.625A11.722 11.722 0 0 1 26.13 97.579l-7.507-52.39c-.91-6.393 3.529-12.315 9.92-13.233l14.24-2.034 1.279 8.858-14.24 2.088a2.699 2.699 0 0 0-2.287 3.059v.002L35.042 96.3a2.72 2.72 0 0 0 3.06 2.286l39.518-5.67a2.233 2.233 0 0 0 1.89-2.521l-.467-3.24 8.911-1.279.469 3.24c.846 6.13-3.418 11.793-9.542 12.675L39.363 107.5c-.549.081-1.102.122-1.656.126z"/>
        <path fill="#57A4FF" d="M91.015 90.99H51.407c-6.46-.011-11.691-5.243-11.702-11.703v-52.21c.011-6.46 5.243-11.691 11.702-11.702h39.608c6.46.01 11.692 5.243 11.702 11.702v52.21c-.01 6.46-5.244 11.692-11.702 11.703zM51.407 24.377c-1.49 0-2.7 1.21-2.7 2.7v52.21c0 1.491 1.21 2.701 2.7 2.701h39.608c1.49 0 2.7-1.21 2.7-2.7v-52.21c0-1.492-1.21-2.701-2.7-2.701H51.407z"/>
        <path fill="#9BC9FF" d="M80.319 42.527h-4.367a5.647 5.647 0 0 1 1.138 1.691h3.229v2.553h-2.614v.4c0 3.167-1.722 5.442-4.674 6.55l5.105 7.779h-5.35l-4.583-7.042h-6.057v-3.997h5.72c3.412 0 4.796-1.63 4.827-3.69H60.885v-2.553h11.1c-.768-1.076-2.183-1.722-4.304-1.69h-6.796v-2.553h19.434v2.552z"/>
    </g>
</svg>
