<svg xmlns="http://www.w3.org/2000/svg" width="15" height="15" viewBox="0 0 15 15">
    <path fill="#4389A2" fill-rule="evenodd" d="M10.987.859c-.56-.295-1.237.1-1.237.733 0 .322.192.602.476.753a5.837 5.837 0 0 1 3.042 6.036c-.378 2.57-2.518 4.626-5.1 4.915a5.84 5.84 0 0 1-6.5-5.796c0-2.247 1.276-4.2 3.142-5.174a.789.789 0 0 0 .44-.694v-.069c0-.621-.662-1.004-1.213-.716A7.501 7.501 0 0 0 .052 8.393c.394 3.414 3.174 6.18 6.588 6.56A7.502 7.502 0 0 0 10.987.858M6.75 6.75v-6a.75.75 0 1 1 1.5 0v6a.75.75 0 1 1-1.5 0"/>
</svg>
