<?xml version="1.0" encoding="UTF-8"?>
<svg width="77px" height="81px" viewBox="0 0 77 81" version="1.1" xmlns="http://www.w3.org/2000/svg" xmlns:xlink="http://www.w3.org/1999/xlink">
    <!-- Generator: Sketch 63.1 (92452) - https://sketch.com -->
    <title>logo</title>
    <desc>Created with Sketch.</desc>
    <defs>
        <polygon id="path-1" points="0 0.175730287 40.9261699 0.175730287 40.9261699 49.1935484 0 49.1935484"></polygon>
    </defs>
    <g id="Splash-&amp;-Login-Module" stroke="none" stroke-width="1" fill="none" fill-rule="evenodd">
        <g id="logo">
            <path d="M59.6623116,55.9078445 C55.8701895,55.9078445 52.7993661,52.756566 52.7993661,48.8711674 C52.7993661,44.9830499 55.8701895,41.8344903 59.6623116,41.8344903 C63.4517819,41.8344903 66.5252571,44.9830499 66.5252571,48.8711674 C66.5252571,52.756566 63.4517819,55.9078445 59.6623116,55.9078445 M57.0635146,32 L43.4622599,32 L43.4622599,60.0651394 C43.4622599,68.0072313 40.8104262,73.513132 36,76.7215087 L36,79 L50.7494987,79 L50.7494987,65.8347796 L57.0635146,65.8347796 C69.2513421,65.8347796 77,59.2983918 77,48.9173898 C77,38.5363878 69.2513421,32 57.0635146,32" id="Fill-1" fill="#68BCDA"></path>
            <g id="Group-5" transform="translate(0.000000, 31.000000)">
                <mask id="mask-2" fill="white">
                    <use xlink:href="#path-1"></use>
                </mask>
                <g id="Clip-4"></g>
                <path d="M19.3125375,24.8544937 C15.4353243,24.8544937 12.2906846,21.6869758 12.2906846,17.7815547 C12.2906846,13.8734005 15.4353243,10.7086156 19.3125375,10.7086156 C23.1897507,10.7086156 26.3343904,13.8734005 26.3343904,17.7815547 C26.3343904,21.6869758 23.1897507,24.8544937 19.3125375,24.8544937 L19.3125375,24.8544937 Z M40.9261699,0.823445341 L40.9261699,0.820712366 L27.1782066,0.820712366 L27.1782066,4.81358871 C25.0049051,1.65700269 21.613361,0.175730287 16.8190743,0.175730287 C7.93051544,0.175730287 -0.000271323529,6.68294355 -0.000271323529,17.1147088 C-0.000271323529,27.55194 7.93051544,34.1220116 16.8190743,34.1220116 C21.1032728,34.1220116 24.299464,32.8976389 26.4754787,30.3860349 L26.4754787,31.0282841 C26.4754787,35.7317339 24.1095375,38.3717876 18.1621257,38.3717876 C14.3880154,38.3717876 9.7185375,37.0189651 6.97003015,34.8927106 L2.11062574,44.8134095 C6.45994191,47.7130959 12.7248022,49.1943683 19.6326993,49.1943683 C25.1839787,49.1943683 29.7937654,48.0656496 33.2911257,45.7754167 C38.2129346,42.5505063 40.9261699,37.0162321 40.9261699,29.0332124 L40.9261699,0.823445341 Z" id="Fill-3" fill="#3483A8" mask="url(#mask-2)"></path>
            </g>
            <path d="M16,23.1229388 L16,20.8770612 C16,19.2957629 17.574289,18 19.5,18 C21.4236796,18 23,19.2957629 23,20.8770612 L23,23.1229388 C23,24.7059069 21.4236796,26 19.5,26 C17.574289,26 16,24.7059069 16,23.1229388 Z" id="Fill-16" fill="#AAAAAA"></path>
            <path d="M33,23.0095458 L33,10.9904542 C33,9.3450969 34.574289,8 36.5,8 C38.4236796,8 40,9.3450969 40,10.9904542 L40,23.0095458 C40,24.6549031 38.4236796,26 36.5,26 C34.574289,26 33,24.6549031 33,23.0095458 Z" id="Fill-18" fill="#AAAAAA"></path>
            <path d="M50,23.1039989 L50,4.89432033 C50,3.30261223 51.5763204,2 53.5,2 C55.425711,2 57,3.30261223 57,4.89432033 L57,23.1039989 C57,24.6973878 55.425711,26 53.5,26 C51.5763204,26 50,24.6973878 50,23.1039989 Z" id="Fill-20" fill="#AAAAAA"></path>
            <path d="M24,23.0760394 L24,2.92226356 C24,1.3151883 25.574289,0 27.5,0 C29.4236796,0 31,1.3151883 31,2.92226356 L31,23.0760394 C31,24.6848117 29.4236796,26 27.5,26 C25.574289,26 24,24.6848117 24,23.0760394 Z" id="Fill-22" fill="#AAAAAA"></path>
            <path d="M41,22.9327993 L41,21.0672007 C41,19.3813974 42.5763204,18 44.5,18 C46.425711,18 48,19.3813974 48,21.0672007 L48,22.9327993 C48,24.6203827 46.425711,26 44.5,26 C42.5763204,26 41,24.6203827 41,22.9327993 Z" id="Fill-24" fill="#AAAAAA"></path>
        </g>
    </g>
</svg>