<?xml version="1.0" encoding="UTF-8"?>
<svg width="318px" height="85px" viewBox="0 0 318 85" version="1.1" xmlns="http://www.w3.org/2000/svg" xmlns:xlink="http://www.w3.org/1999/xlink">
    <!-- Generator: Sketch 63.1 (92452) - https://sketch.com -->
    <title>Group 4</title>
    <desc>Created with Sketch.</desc>
    <defs>
        <polygon id="path-1" points="0 0.184859133 43.0522047 0.184859133 43.0522047 51.7490574 0 51.7490574"></polygon>
    </defs>
    <g id="Splash-&amp;-Login-Module" stroke="none" stroke-width="1" fill="none" fill-rule="evenodd">
        <g id="Group-4">
            <g id="logo">
                <g id="Group-2">
                    <path d="M62.7616525,58.8121481 C58.772537,58.8121481 55.5421904,55.4971668 55.5421904,51.4099294 C55.5421904,47.3198317 58.772537,44.0077106 62.7616525,44.0077106 C66.7479784,44.0077106 69.9811146,47.3198317 69.9811146,51.4099294 C69.9811146,55.4971668 66.7479784,58.8121481 62.7616525,58.8121481 M60.0278531,33.6623377 L45.7200396,33.6623377 L45.7200396,63.1854064 C45.7200396,71.5400745 42.9304484,77.331996 37.8701299,80.7070417 L37.8701299,83.1038961 L53.3858363,83.1038961 L53.3858363,69.2547681 L60.0278531,69.2547681 C72.8488144,69.2547681 81,62.3788277 81,51.4585529 C81,40.5382781 72.8488144,33.6623377 60.0278531,33.6623377" id="Fill-1" fill="#68BCDA"></path>
                    <g id="Group-5" transform="translate(0.000000, 32.610390)">
                        <mask id="mask-2" fill="white">
                            <use xlink:href="#path-1"></use>
                        </mask>
                        <g id="Clip-4"></g>
                        <path d="M20.3157862,26.1456363 C16.2371593,26.1456363 12.9291617,22.813572 12.9291617,18.7052718 C12.9291617,14.5940967 16.2371593,11.2649073 20.3157862,11.2649073 C24.3944131,11.2649073 27.7024107,14.5940967 27.7024107,18.7052718 C27.7024107,22.813572 24.3944131,26.1456363 20.3157862,26.1456363 L20.3157862,26.1456363 Z M43.0522047,0.866221722 L43.0522047,0.863346774 L28.5900615,0.863346774 L28.5900615,5.06364527 C26.3038613,1.74308075 22.736133,0.184859133 17.6927924,0.184859133 C8.34249027,0.184859133 -0.000285418258,7.03010945 -0.000285418258,18.0037846 C-0.000285418258,28.9832096 8.34249027,35.8945837 17.6927924,35.8945837 C22.1995467,35.8945837 25.5617738,34.6066071 27.8508282,31.9645303 L27.8508282,32.640143 C27.8508282,37.5879278 25.361981,40.3651273 19.1056128,40.3651273 C15.1354448,40.3651273 10.2233966,38.9420282 7.33210964,36.7053189 L2.22026863,47.1413788 C6.79552331,50.1916983 13.3858309,51.7499199 20.6525797,51.7499199 C26.4922373,51.7499199 31.3414935,50.5625665 35.0205349,48.1533604 C40.1980221,44.7609222 43.0522047,38.9391532 43.0522047,30.5414312 L43.0522047,0.866221722 Z" id="Fill-3" fill="#3483A8" mask="url(#mask-2)"></path>
                    </g>
                    <path d="M16.8311688,24.3241305 L16.8311688,21.9615838 C16.8311688,20.2981402 18.4872391,18.9350649 20.512987,18.9350649 C22.5365981,18.9350649 24.1948052,20.2981402 24.1948052,21.9615838 L24.1948052,24.3241305 C24.1948052,25.9893306 22.5365981,27.3506494 20.512987,27.3506494 C18.4872391,27.3506494 16.8311688,25.9893306 16.8311688,24.3241305 Z" id="Fill-16" fill="#AAAAAA"></path>
                    <path d="M34.7142857,24.2048469 L34.7142857,11.5613868 C34.7142857,9.83055648 36.370356,8.41558442 38.3961039,8.41558442 C40.4197149,8.41558442 42.0779221,9.83055648 42.0779221,11.5613868 L42.0779221,24.2048469 C42.0779221,25.9356773 40.4197149,27.3506494 38.3961039,27.3506494 C36.370356,27.3506494 34.7142857,25.9356773 34.7142857,24.2048469 Z" id="Fill-18" fill="#AAAAAA"></path>
                    <path d="M52.5974026,24.3042066 L52.5974026,5.14857074 C52.5974026,3.4741765 54.2556097,2.1038961 56.2792208,2.1038961 C58.3049687,2.1038961 59.961039,3.4741765 59.961039,5.14857074 L59.961039,24.3042066 C59.961039,25.980369 58.3049687,27.3506494 56.2792208,27.3506494 C54.2556097,27.3506494 52.5974026,25.980369 52.5974026,24.3042066 Z" id="Fill-20" fill="#AAAAAA"></path>
                    <path d="M25.2467532,24.2747947 L25.2467532,3.07406946 C25.2467532,1.38350977 26.9028235,0 28.9285714,0 C30.9521825,0 32.6103896,1.38350977 32.6103896,3.07406946 L32.6103896,24.2747947 C32.6103896,25.9671396 30.9521825,27.3506494 28.9285714,27.3506494 C26.9028235,27.3506494 25.2467532,25.9671396 25.2467532,24.2747947 Z" id="Fill-22" fill="#AAAAAA"></path>
                    <path d="M43.1298701,24.1241135 L43.1298701,22.1616007 C43.1298701,20.3882233 44.7880773,18.9350649 46.8116883,18.9350649 C48.8374362,18.9350649 50.4935065,20.3882233 50.4935065,22.1616007 L50.4935065,24.1241135 C50.4935065,25.8993637 48.8374362,27.3506494 46.8116883,27.3506494 C44.7880773,27.3506494 43.1298701,25.8993637 43.1298701,24.1241135 Z" id="Fill-24" fill="#AAAAAA"></path>
                </g>
            </g>
            <g id="Group-3" transform="translate(89.000000, 31.000000)" font-family="Rubik-Medium, Rubik" font-size="46" font-weight="400">
                <text id="Great" fill="#3483A8">
                    <tspan x="0.17" y="43">Great</tspan>
                </text>
                <text id="Plus" fill="#68BCDA">
                    <tspan x="135.666" y="43">Plus</tspan>
                </text>
            </g>
        </g>
    </g>
</svg>