<?xml version="1.0" encoding="UTF-8"?>
<svg width="40px" height="40px" viewBox="0 0 40 40" version="1.1" xmlns="http://www.w3.org/2000/svg" xmlns:xlink="http://www.w3.org/1999/xlink">
    <!-- Generator: Sketch 63.1 (92452) - https://sketch.com -->
    <title>expense_status_ordered@1.5x</title>
    <desc>Created with Sketch.</desc>
    <g id="expense_status_ordered" stroke="none" stroke-width="1" fill="none" fill-rule="evenodd">
        <path d="M21.5,30.5 C21.5,31.328 20.828,32 20,32 C19.172,32 18.5,31.328 18.5,30.5 L18.5,9.5 C18.5,8.672 19.172,8 20,8 C20.828,8 21.5,8.672 21.5,9.5 L21.5,30.5 Z M21.5,5 L18.5,5 C16.8425,5 15.5,6.3425 15.5,8 L15.5,32 C15.5,33.6575 16.8425,35 18.5,35 L21.5,35 C23.1575,35 24.5,33.6575 24.5,32 L24.5,8 C24.5,6.3425 23.1575,5 21.5,5 L21.5,5 Z M11,30.5 C11,31.328 10.328,32 9.5,32 C8.672,32 8,31.328 8,30.5 L8,15.5 C8,14.672 8.672,14 9.5,14 C10.328,14 11,14.672 11,15.5 L11,30.5 Z M11,11 L8,11 C6.3425,11 5,12.3425 5,14 L5,32 C5,33.6575 6.3425,35 8,35 L11,35 C12.6575,35 14,33.6575 14,32 L14,14 C14,12.3425 12.6575,11 11,11 L11,11 Z M32,30.5 C32,31.328 31.328,32 30.5,32 C29.672,32 29,31.328 29,30.5 L29,24.5 C29,23.672 29.672,23 30.5,23 C31.328,23 32,23.672 32,24.5 L32,30.5 Z M32,20 L29,20 C27.3425,20 26,21.3425 26,23 L26,32 C26,33.6575 27.3425,35 29,35 L32,35 C33.6575,35 35,33.6575 35,32 L35,23 C35,21.3425 33.6575,20 32,20 L32,20 Z" id="expense_status_color" fill="#46C984"></path>
    </g>
</svg>