<?xml version="1.0" encoding="UTF-8"?>
<svg width="30px" height="30px" viewBox="0 0 30 30" version="1.1" xmlns="http://www.w3.org/2000/svg" xmlns:xlink="http://www.w3.org/1999/xlink">
    <!-- Generator: Sketch 63.1 (92452) - https://sketch.com -->
    <title>customeractivity_collection</title>
    <desc>Created with Sketch.</desc>
    <g id="customeractivity_collection" stroke="none" stroke-width="1" fill="none" fill-rule="evenodd">
        <path d="M21.6277595,9.53134875 C21.5427681,9.44635736 21.4338048,9.40364373 21.3008695,9.40364373 L18.872295,9.40364373 C18.7112472,8.61801818 18.4083292,7.93525399 17.963105,7.35818424 L21.2718853,7.35818424 C21.4048205,7.35818424 21.5137839,7.31547061 21.5987753,7.23047922 C21.6839846,7.1452699 21.7264803,7.03630658 21.7264803,6.90358925 L21.7264803,5.45459498 C21.7264803,5.32187766 21.6839846,5.21291433 21.5987753,5.12770501 C21.5137839,5.04271362 21.4048205,5 21.2718853,5 L9.45459498,5 C9.32187766,5 9.21291433,5.04271362 9.12770501,5.12770501 C9.0424957,5.21291433 9,5.32187766 9,5.45459498 L9,7.34358315 C9,7.46714756 9.04511082,7.57349576 9.13533245,7.66371739 C9.22468237,7.75306732 9.3312485,7.79817813 9.45459498,7.79817813 L11.5137839,7.79817813 C13.5117353,7.79817813 14.7809401,8.3327522 15.3207444,9.40277203 L9.45459498,9.40277203 C9.32187766,9.40277203 9.21291433,9.44548565 9.12770501,9.53134875 C9.0424957,9.61655807 9,9.72464968 9,9.85736701 L9,11.3063613 C9,11.4390786 9.0424957,11.5480419 9.12770501,11.6332512 C9.21291433,11.7182426 9.32187766,11.7609563 9.45459498,11.7609563 L15.5199294,11.7609563 C15.3113736,12.5380827 14.826051,13.1297535 14.0633077,13.5366226 C13.3014361,13.9434916 12.2952688,14.1479068 11.0456774,14.1479068 L9.45459498,14.1479068 C9.3312485,14.1479068 9.22468237,14.1921459 9.13533245,14.2823676 C9.04511082,14.3725892 9,14.4789374 9,14.6025018 L9,16.4062806 C9,16.5296271 9.0424957,16.6335781 9.12770501,16.7187875 C10.9460849,18.6502713 13.3040513,21.3538693 16.2018219,24.8295814 C16.2870312,24.9429032 16.4051474,25 16.5568244,25 L19.32689,25 C19.5252032,25 19.6631508,24.9147907 19.7378996,24.7437183 C19.8333515,24.5735176 19.8146098,24.4124698 19.6818925,24.2610107 C16.9168392,20.8711618 14.7434568,18.3327522 13.1619631,16.6473075 C14.7715693,16.4581472 16.0782575,15.9373025 17.0820276,15.0852093 C18.0855798,14.2328982 18.696864,13.1245233 18.9147907,11.761828 L21.3008695,11.761828 C21.4338048,11.761828 21.5427681,11.7191143 21.6277595,11.6332512 C21.7129688,11.5480419 21.7554645,11.4390786 21.7554645,11.307233 L21.7554645,9.85823872 C21.7554645,9.72552139 21.7129688,9.61655807 21.6277595,9.53134875 Z" id="customer_collection_icon" fill="#4389A2"></path>
    </g>
</svg>