<?xml version="1.0" encoding="UTF-8"?>
<svg width="30px" height="30px" viewBox="0 0 30 30" version="1.1" xmlns="http://www.w3.org/2000/svg" xmlns:xlink="http://www.w3.org/1999/xlink">
    <!-- Generator: Sketch 63.1 (92452) - https://sketch.com -->
    <title>statistics</title>
    <desc>Created with Sketch.</desc>
    <defs>
        <polygon id="path-1" points="0.003515625 0 30 0 30 30 0.003515625 30"></polygon>
    </defs>
    <g id="Icons" stroke="none" stroke-width="1" fill="none" fill-rule="evenodd">
        <g id="dashboard_reports" transform="translate(-5.000000, -5.000000)">
            <g id="statistics" transform="translate(5.000000, 5.000000)">
                <mask id="mask-2" fill="white">
                    <use xlink:href="#path-1"></use>
                </mask>
                <g id="Clip-2"></g>
                <path d="M4.453125,14.0625 C5.16222656,14.0625 5.80400391,13.7780273 6.27820313,13.3211719 L8.87994141,14.6218945 C8.866875,14.727832 8.84765625,14.8320117 8.84765625,14.9414062 C8.84765625,16.3952344 10.0305469,17.578125 11.484375,17.578125 C12.9382031,17.578125 14.1210938,16.3952344 14.1210938,14.9414062 C14.1210938,14.5355859 14.0213086,14.1556641 13.8567187,13.8118945 L17.3861133,10.2825 C17.7298828,10.4470898 18.1098047,10.546875 18.515625,10.546875 C19.9694531,10.546875 21.1523438,9.36398437 21.1523438,7.91015625 C21.1523438,7.63640625 21.0985547,7.37753906 21.0207422,7.12921875 L24.0873047,4.82988281 C24.5056641,5.10931641 25.007168,5.2734375 25.546875,5.2734375 C27.0007031,5.2734375 28.1835938,4.09054688 28.1835938,2.63671875 C28.1835938,1.18289062 27.0007031,0 25.546875,0 C24.0930469,0 22.9101562,1.18289062 22.9101562,2.63671875 C22.9101562,2.91046875 22.9639453,3.16933594 23.0417578,3.41765625 L19.9751953,5.71699219 C19.5568359,5.43755859 19.055332,5.2734375 18.515625,5.2734375 C17.0617969,5.2734375 15.8789062,6.45632812 15.8789062,7.91015625 C15.8789062,8.31597656 15.9786914,8.69589844 16.1432813,9.03966797 L12.6138867,12.5690625 C12.2701172,12.4044727 11.8901953,12.3046875 11.484375,12.3046875 C10.7752734,12.3046875 10.1334961,12.5891602 9.65929687,13.0460156 L7.05755859,11.745293 C7.070625,11.6393555 7.08984375,11.5351758 7.08984375,11.4257812 C7.08984375,9.97195312 5.90695312,8.7890625 4.453125,8.7890625 C2.99929688,8.7890625 1.81640625,9.97195312 1.81640625,11.4257812 C1.81640625,12.8796094 2.99929688,14.0625 4.453125,14.0625 Z" id="Fill-1" fill="#68BCDA" mask="url(#mask-2)"></path>
                <path d="M29.1210938,28.2421875 L28.1835938,28.2421875 L28.1835938,9.66796875 C28.1835938,9.18228516 27.7903711,8.7890625 27.3046875,8.7890625 L23.7890625,8.7890625 C23.3033789,8.7890625 22.9101562,9.18228516 22.9101562,9.66796875 L22.9101562,28.2421875 L21.1523438,28.2421875 L21.1523438,14.9414062 C21.1523438,14.4557227 20.7591211,14.0625 20.2734375,14.0625 L16.7578125,14.0625 C16.2721289,14.0625 15.8789062,14.4557227 15.8789062,14.9414062 L15.8789062,28.2421875 L14.1210938,28.2421875 L14.1210938,21.9726562 C14.1210938,21.4869727 13.7278711,21.09375 13.2421875,21.09375 L9.7265625,21.09375 C9.24087891,21.09375 8.84765625,21.4869727 8.84765625,21.9726562 L8.84765625,28.2421875 L7.08984375,28.2421875 L7.08984375,18.4570312 C7.08984375,17.9713477 6.69662109,17.578125 6.2109375,17.578125 L2.6953125,17.578125 C2.20962891,17.578125 1.81640625,17.9713477 1.81640625,18.4570312 L1.81640625,28.2421875 L0.87890625,28.2421875 C0.393222656,28.2421875 0,28.6354102 0,29.1210938 C0,29.6067773 0.393222656,30 0.87890625,30 L29.1210938,30 C29.6067773,30 30,29.6067773 30,29.1210938 C30,28.6354102 29.6067773,28.2421875 29.1210938,28.2421875 Z" id="Fill-3" fill="#4389A2" mask="url(#mask-2)"></path>
            </g>
        </g>
    </g>
</svg>