<svg xmlns="http://www.w3.org/2000/svg" xmlns:xlink="http://www.w3.org/1999/xlink" width="28" height="30" viewBox="0 0 28 30">
    <defs>
        <path id="prefix__a" d="M0 0.028L25.881 0.028 25.881 9.872 0 9.872z"/>
    </defs>
    <g fill="none" fill-rule="evenodd">
        <path fill="#6F97CE" d="M18.646 8.596c.396.278.783.563 1.156.856 5.007-2.416 8.314-5.467 7.79-7.425-.608-2.272-6.929-2.75-14.057-.841-4.862 1.303-8.93 3.053-10.723 5.159 2.696-3.04 9.615-2.1 15.834 2.251"/>
        <path fill="#ED3124" d="M26.492 20.254c.183.683.134 1.345-.115 1.978 1.37-3.377-1.357-8.705-6.58-12.795-.7.338-1.429.661-2.188.968-6.834 2.766-14.644 2.898-15.667-.917-.179-.66-.132-1.299.107-1.911-1.336 3.326 1.287 8.532 6.345 12.59.63-.298 1.285-.584 1.961-.858 7.037-2.849 15.083-2.984 16.137.945"/>
        <g transform="translate(.02 20.128)">
            <mask id="prefix__b" fill="#fff">
                <use xlink:href="#prefix__a"/>
            </mask>
            <path fill="#FCB813" d="M9.766 1.07C9.283.735 8.818.386 8.371.029 3.05 2.528-.494 5.743.056 7.79c.627 2.332 7.135 2.824 14.471.863C19.84 7.236 24.232 5.3 25.881 2.96c-2.46 3.456-9.664 2.613-16.115-1.888" mask="url(#prefix__b)"/>
        </g>
        <path fill="#894C9D" d="M1.964 9.47c1.022 3.805 8.825 3.675 15.652.914.759-.306 1.487-.629 2.186-.965-.373-.29-.758-.575-1.154-.852-6.21-4.338-13.119-5.275-15.81-2.245-.214.25-.57.732-.767 1.24-.238.611-.285 1.25-.107 1.908"/>
        <path fill="#F4811F" d="M26.387 22.217c.254-.632.298-1.293.115-1.977-1.054-3.925-9.102-3.79-16.14-.944-.677.274-1.331.56-1.963.856.448.358.913.708 1.396 1.045 6.45 4.506 13.655 5.35 16.115 1.89.014-.018.282-.385.477-.87"/>
    </g>
</svg>
