<svg xmlns="http://www.w3.org/2000/svg" width="40" height="40" viewBox="0 0 40 40">
    <g fill="none">
        <g fill="#57A4FF">
            <path d="M24.848 18.385H11.862c-1.031-.001-1.935-.693-2.207-1.688L5.683 2.146c-.092-.343-.409-.578-.764-.565H.764C.342 1.58 0 1.238 0 .817 0 .395.342.053.764.053h4.178C5.974.054 6.878.746 7.15 1.74l.763 2.895h19.8c1.265.002 2.29 1.03 2.287 2.295 0 .23-.035.457-.103.676l-2.865 9.166c-.297.957-1.182 1.61-2.184 1.612zM8.364 6.164l2.765 10.128c.093.343.409.578.764.565h12.985c.347.016.66-.204.764-.534l2.865-9.166c.126-.403-.097-.831-.5-.959-.085-.027-.175-.039-.264-.034H8.364zM13.367 25.26c-1.476 0-2.673-1.197-2.673-2.674 0-1.476 1.197-2.673 2.673-2.673 1.477 0 2.674 1.197 2.674 2.673 0 1.477-1.197 2.674-2.674 2.674zm0-3.82c-.632 0-1.145.514-1.145 1.146 0 .633.513 1.146 1.145 1.146.633 0 1.146-.513 1.146-1.146 0-.633-.513-1.146-1.146-1.146zM22.533 25.26c-1.476 0-2.673-1.197-2.673-2.674 0-1.476 1.197-2.673 2.673-2.673 1.477 0 2.674 1.197 2.674 2.673 0 1.477-1.197 2.674-2.674 2.674zm0-3.82c-.632 0-1.145.514-1.145 1.146 0 .633.513 1.146 1.145 1.146.633 0 1.146-.513 1.146-1.146 0-.633-.513-1.146-1.146-1.146z" transform="translate(4 8)"/>
        </g>
        <path fill="#FF6767" d="M20.157 21.185l.505.512c.186.189.49.19.677.005l1.102-1.086 1.086 1.102c.186.188.49.19.678.004l.511-.504c.189-.186.191-.49.005-.678l-1.086-1.101 1.102-1.086c.188-.186.19-.49.005-.678l-.505-.512c-.185-.188-.489-.19-.677-.005l-1.102 1.086-1.086-1.101c-.186-.189-.49-.19-.678-.005l-.511.504c-.189.186-.19.49-.005.678l1.086 1.102-1.102 1.086c-.188.186-.19.49-.005.677z"/>
    </g>
</svg>
