<?xml version="1.0" encoding="UTF-8"?>
<svg width="40px" height="40px" viewBox="0 0 40 40" version="1.1" xmlns="http://www.w3.org/2000/svg" xmlns:xlink="http://www.w3.org/1999/xlink">
    <!-- Generator: Sketch 63.1 (92452) - https://sketch.com -->
    <title>expense_claims_rejected@1.5x</title>
    <desc>Created with Sketch.</desc>
    <g id="expense_claims_rejected" stroke="none" stroke-width="1" fill="none" fill-rule="evenodd">
        <path d="M31.9138756,30.515 C31.9138756,31.3355 31.4413876,32 30.6235048,32 L18.4569378,32 L18.4569378,22.787 C18.4569378,22.1285 19.3361244,21.7895 19.8130981,22.2425 L21.3636364,23.666 C21.9572368,24.23 22.9171651,24.203 23.479366,23.6075 L23.5122608,23.585 C24.0729665,22.9895 24.0535287,22.049 23.458433,21.4865 L19.2090311,17.4545 C18.0547249,16.358 16.2470096,16.3625 15.0956938,17.462 L10.8687201,21.4985 C10.2825957,22.058 10.2526914,22.985 10.8014354,23.5805 L10.8014354,23.5805 C11.3591507,24.1895 12.3071172,24.2225 12.9066986,23.654 L14.3002392,22.241 C14.7772129,21.7895 15.4665072,22.1285 15.4665072,22.787 L15.4665072,32 L9.66058612,32 C8.84270335,32 7.99043062,31.3355 7.99043062,30.515 L7.99043062,9.485 C7.99043062,8.6645 8.84270335,8 9.66058612,8 L22.9425837,8 L22.9425837,14 C22.9425837,15.656 24.472189,17 26.1229067,17 L31.9138756,17 L31.9138756,30.515 Z M34.9043062,32 L34.9043062,14.615 C34.9043062,14.2205 34.8430024,13.844 34.5663876,13.565 L26.5565191,5.435 C26.2799043,5.156 25.90311,5 25.5098684,5 L8.18032297,5 C6.52960526,5 5.09569378,6.5 5.09569378,8 L5,8 L5,32 L5.09569378,32 C5.09569378,33.5 6.48175837,35 8.13247608,35 L8.18032297,35 L32.1037679,35 L32.1037679,35 C33.7559809,35 35,33.656 35,32 L34.9043062,32 Z" id="expense_claims_color" fill="#DA596F"></path>
    </g>
</svg>