<svg xmlns="http://www.w3.org/2000/svg" width="40" height="40" viewBox="0 0 40 40">
    <g fill="none" transform="translate(10.4 8)">
        <circle cx="9.514" cy="15.319" r="4.766" fill="#68BCDA"/>
        <path fill="#4389A2" d="M18.875.347C18.742.132 18.507 0 18.254 0h-6.357c-.276 0-.53.155-.654.402l-1.729 3.45L7.785.403C7.661.155 7.408 0 7.131 0H.778C.375 0 .047.326.046.73c0 .114.026.228.078.33l3.82 7.617c-3.672 3.077-4.155 8.548-1.078 12.22 3.076 3.671 8.547 4.154 12.219 1.077 3.671-3.076 4.154-8.547 1.078-12.219-.328-.39-.688-.75-1.078-1.078l3.823-7.617c.114-.227.101-.497-.033-.713zM1.962 1.462h4.72l2.017 4.02-.647 1.287c-1.022.175-2.004.533-2.899 1.057l-3.19-6.364zM16.73 15.32c0 3.983-3.228 7.212-7.211 7.212s-7.212-3.229-7.212-7.212c0-3.982 3.226-7.21 7.208-7.212 3.983.002 7.211 3.23 7.215 7.212zm-2.85-7.493c-1.256-.735-2.677-1.14-4.131-1.177l2.603-5.187h4.718l-3.19 6.364z"/>
    </g>
</svg>
